#!OML:ASF E:\Steps\Project 1\Capture day 1\Session 2\Subject.ASF
:FULLY-SPECIFIED
:DEGREES
374
root 12.3327 18.87 16.6152 -151.039 1.49639 176.75
lowerback -28.0709 -3.60115 -5.41113
upperback -3.95084 -2.04804 0.270354
thorax 11.3527 -0.736697 2.75932
lowerneck -3.0689 -1.45984 1.87368
upperneck 2.93555 -2.00958 -0.492641
head 1.39662 -0.988809 -0.508327
rclavicle -6.4574e-015 9.69075e-016
rhumerus -42.0662 -16.5366 -75.7254
rradius 28.8139
rwrist -1.75851
rhand -9.80371 -48.0147
rfingers 7.12502
rthumb 16.1727 -77.36
lclavicle -6.4574e-015 9.69075e-016
lhumerus -28.8621 11.0814 79.2829
lradius 21.1018
lwrist -4.44137
lhand -22.7023 -12.9586
lfingers 7.12502
lthumb 3.73057 16.9885
rfemur -25.6122 7.02146 18.2431
rtibia 6.80287
rfoot -17.8886 -4.02601
rtoes -28.434
lfemur -26.9398 -8.19654 -21.8749
ltibia 6.94021
lfoot -2.45753 -10.1099
ltoes -11.6266
375
root 12.3123 18.8738 16.5543 -152.191 2.20318 177.085
lowerback -28.0068 -3.08233 -4.88726
upperback -3.47217 -1.61473 0.1312
thorax 11.8121 -0.577078 2.45059
lowerneck -3.16515 -1.4895 1.95553
upperneck 2.75078 -2.05374 -0.560455
head 1.35287 -1.01307 -0.543473
rclavicle 8.87698e-015 1.69961e-014
rhumerus -41.8928 -16.6653 -75.6948
rradius 28.79
rwrist -1.63135
rhand -9.41975 -48.8295
rfingers 7.12502
rthumb 16.5423 -78.1444
lclavicle 8.87698e-015 1.69961e-014
lhumerus -28.6467 10.9382 79.3255
lradius 21.0119
lwrist -4.49714
lhand -22.0984 -13.3916
lfingers 7.12502
lthumb 4.31376 16.5445
rfemur -24.0244 6.54317 18.6831
rtibia 6.43074
rfoot -17.9573 -2.72088
rtoes -28.9233
lfemur -24.8509 -8.97754 -21.6651
ltibia 5.92425
lfoot -2.9737 -8.51268
ltoes -13.7117
376
root 12.3303 18.8628 16.6109 -150.965 1.51805 176.72
lowerback -28.5011 -3.60667 -5.3078
upperback -3.93822 -2.03171 0.21715
thorax 11.5818 -0.71976 2.63959
lowerneck -3.32325 -1.4718 1.96761
upperneck 2.50724 -2.03513 -0.552538
head 1.30328 -1.00567 -0.542296
rclavicle -1.5089e-014 -2.33572e-015
rhumerus -41.8036 -16.7981 -75.5978
rradius 28.8733
rwrist -1.54529
rhand -9.17939 -49.8663
rfingers 7.12502
rthumb 16.7738 -79.1618
lclavicle -1.5089e-014 -2.33572e-015
lhumerus -28.5238 10.6814 79.4916
lradius 21.0503
lwrist -4.53444
lhand -22.1341 -13.3508
lfingers 7.12502
lthumb 4.27928 16.5859
rfemur -25.6557 6.52669 18.2861
rtibia 6.74106
rfoot -17.8567 -3.59023
rtoes -29.1297
lfemur -27.1007 -8.49032 -21.8427
ltibia 7.15886
lfoot -2.84767 -9.89551
ltoes -12.7498
377
root 12.3326 18.8693 16.6114 -151.231 1.37719 176.689
lowerback -28.2112 -3.63567 -5.36373
upperback -3.94871 -2.08678 0.246104
thorax 11.4283 -0.749923 2.68795
lowerneck -3.30418 -1.43222 1.78217
upperneck 2.12085 -1.97827 -0.3672
head 1.18135 -0.978183 -0.449056
rclavicle -1.26725e-015 1.35174e-014
rhumerus -41.8673 -16.629 -75.5991
rradius 29.1085
rwrist -2.01483
rhand -9.47411 -49.904
rfingers 7.12502
rthumb 16.49 -79.2232
lclavicle -1.26725e-015 1.35174e-014
lhumerus -28.5646 10.1695 79.8115
lradius 21.2086
lwrist -4.39526
lhand -22.7502 -12.6631
lfingers 7.12502
lthumb 3.68433 17.2848
rfemur -25.2471 6.57691 18.3199
rtibia 6.60597
rfoot -17.8616 -3.68918
rtoes -28.7224
lfemur -26.8354 -8.62277 -21.8571
ltibia 7.25583
lfoot -3.07117 -9.95209
ltoes -13.5535
378
root 12.3343 18.8659 16.6135 -151.119 1.2756 176.619
lowerback -28.3684 -3.71025 -5.41705
upperback -4.03678 -2.13181 0.250985
thorax 11.4141 -0.758598 2.70746
lowerneck -3.20354 -1.35073 1.52497
upperneck 1.76422 -1.86088 -0.127127
head 1.05686 -0.919519 -0.32613
rclavicle 5.69953e-015 2.08972e-014
rhumerus -41.6233 -17.0317 -75.4833
rradius 28.9422
rwrist -1.97991
rhand -9.44002 -49.1129
rfingers 7.12502
rthumb 16.5228 -78.4294
lclavicle 5.69953e-015 2.08972e-014
lhumerus -28.5141 9.85895 80.016
lradius 21.1407
lwrist -4.48993
lhand -23.3464 -12.3892
lfingers 7.12502
lthumb 3.10862 17.5679
rfemur -25.3943 6.74109 18.197
rtibia 6.67001
rfoot -17.9639 -3.97256
rtoes -28.9709
lfemur -27.0387 -8.71474 -21.8704
ltibia 7.37733
lfoot -3.09685 -10.0336
ltoes -13.2249
